<svg width="63" height="30" viewBox="0 0 63 30" fill="none" xmlns="http://www.w3.org/2000/svg">
<path d="M0 22.5L0.0307472 0H3.78195V13.75L9.85458 5.625H14.4821L8.04048 14.0625L15.0355 22.5H10.1313L3.78195 14.375V22.5H0Z" fill="url(#paint0_linear)"/>
<path d="M23.8238 22.9687C22.1429 22.9687 20.6671 22.599 19.3962 21.8594C18.1253 21.1198 17.1311 20.0938 16.4137 18.7813C15.7065 17.4688 15.3529 15.9583 15.3529 14.25C15.3529 12.4062 15.7013 10.8073 16.3983 9.45313C17.0952 8.08854 18.0638 7.03125 19.3039 6.28125C20.5441 5.53125 21.979 5.15625 23.6086 5.15625C25.3304 5.15625 26.7909 5.56771 27.9901 6.39063C29.1995 7.20312 30.0963 8.35417 30.6805 9.84375C31.2647 11.3333 31.4851 13.0885 31.3416 15.1094H27.6672V13.7344C27.657 11.901 27.3393 10.5625 26.7141 9.71875C26.0889 8.875 25.105 8.45312 23.7623 8.45312C22.2454 8.45312 21.118 8.93229 20.3801 9.89063C19.6421 10.8385 19.2732 12.2292 19.2732 14.0625C19.2732 15.7708 19.6421 17.0937 20.3801 18.0312C21.118 18.9687 22.1942 19.4375 23.6086 19.4375C24.5208 19.4375 25.3048 19.2344 25.9608 18.8281C26.627 18.4115 27.1394 17.8125 27.4981 17.0313L31.1571 18.1562C30.5216 19.6771 29.5377 20.8594 28.2053 21.7031C26.8832 22.5469 25.4227 22.9687 23.8238 22.9687ZM18.1048 15.1094V12.2656H29.5275V15.1094H18.1048Z" fill="url(#paint1_linear)"/>
<path d="M42.3004 22.9687C40.6811 22.9687 39.323 22.5781 38.2264 21.7969C37.1297 21.0156 36.3047 19.9531 35.7512 18.6094C35.1978 17.2552 34.921 15.7396 34.921 14.0625C34.921 12.3646 35.1978 10.8438 35.7512 9.5C36.3047 8.15625 37.1143 7.09896 38.1803 6.32812C39.2564 5.54687 40.5837 5.15625 42.1621 5.15625C43.7302 5.15625 45.0882 5.54687 46.2361 6.32812C47.3943 7.09896 48.2911 8.15625 48.9265 9.5C49.562 10.8333 49.8797 12.3542 49.8797 14.0625C49.8797 15.75 49.5671 17.2656 48.9419 18.6094C48.3167 19.9531 47.4353 21.0156 46.2976 21.7969C45.16 22.5781 43.8276 22.9687 42.3004 22.9687ZM34.2907 30V5.625H37.5653V17.4688H38.0265V30H34.2907ZM41.7316 19.5938C42.695 19.5938 43.4893 19.349 44.1145 18.8594C44.7397 18.3698 45.2009 17.7083 45.4982 16.875C45.8056 16.0313 45.9594 15.0938 45.9594 14.0625C45.9594 13.0417 45.8056 12.1146 45.4982 11.2812C45.1907 10.4375 44.7141 9.77083 44.0684 9.28125C43.4227 8.78125 42.6028 8.53125 41.6086 8.53125C40.6657 8.53125 39.897 8.76563 39.3025 9.23438C38.7081 9.69271 38.2674 10.3385 37.9804 11.1719C37.7037 11.9948 37.5653 12.9583 37.5653 14.0625C37.5653 15.1563 37.7037 16.1198 37.9804 16.9531C38.2674 17.7865 38.7132 18.4375 39.3179 18.9063C39.9329 19.3646 40.7374 19.5938 41.7316 19.5938Z" fill="url(#paint2_linear)"/>
<path d="M63 22.5C61.9033 22.7083 60.8272 22.7969 59.7715 22.7656C58.7261 22.7448 57.7883 22.5521 56.9581 22.1875C56.1279 21.8125 55.4976 21.224 55.0671 20.4219C54.6879 19.6927 54.4881 18.9479 54.4676 18.1875C54.4471 17.4271 54.4368 16.5677 54.4368 15.6094V0.937499H58.1265V15.3906C58.1265 16.0677 58.1316 16.6615 58.1419 17.1719C58.1624 17.6823 58.27 18.099 58.4647 18.4219C58.8337 19.0469 59.423 19.3958 60.2327 19.4687C61.0424 19.5417 61.9648 19.5 63 19.3437V22.5ZM51.4236 8.57813V5.625H63V8.57813H51.4236Z" fill="url(#paint3_linear)"/>
<defs>
<linearGradient id="paint0_linear" x1="-18.4119" y1="-5.16678" x2="105.417" y2="33.7536" gradientUnits="userSpaceOnUse">
<stop stop-color="#2CDBDB"/>
<stop offset="1" stop-color="#004EE7"/>
</linearGradient>
<linearGradient id="paint1_linear" x1="-18.4119" y1="-5.16678" x2="105.417" y2="33.7536" gradientUnits="userSpaceOnUse">
<stop stop-color="#2CDBDB"/>
<stop offset="1" stop-color="#004EE7"/>
</linearGradient>
<linearGradient id="paint2_linear" x1="-18.4119" y1="-5.16678" x2="105.417" y2="33.7536" gradientUnits="userSpaceOnUse">
<stop stop-color="#2CDBDB"/>
<stop offset="1" stop-color="#004EE7"/>
</linearGradient>
<linearGradient id="paint3_linear" x1="-18.4119" y1="-5.16678" x2="105.417" y2="33.7536" gradientUnits="userSpaceOnUse">
<stop stop-color="#2CDBDB"/>
<stop offset="1" stop-color="#004EE7"/>
</linearGradient>
</defs>
</svg>
